HIERARCHY
ROOT ui
{
	 OFFSET 0 0 0
	 CHANNELS 3 XPosition YPosition Z Position
	 EndSite
	 {
	 OFFSET 0 -1 0
	 }
}
ROOT li
{
	 OFFSET 0 0 0
	 CHANNELS 3 XPosition YPosition Z Position
	 EndSite
	 {
	 OFFSET 0 -1 0
	 }
}
ROOT ul
{
	 OFFSET 0 0 0
	 CHANNELS 3 XPosition YPosition Z Position
	 EndSite
	 {
	 OFFSET 0 -1 0
	 }
}
ROOT ll
{
	 OFFSET 0 0 0
	 CHANNELS 3 XPosition YPosition Z Position
	 EndSite
	 {
	 OFFSET 0 -1 0
	 }
}
ROOT tt
{
	 OFFSET 0 0 0
	 CHANNELS 3 XPosition YPosition Z Position
	 EndSite
	 {
	 OFFSET 0 -1 0
	 }
}
ROOT tb
{
	 OFFSET 0 0 0
	 CHANNELS 3 XPosition YPosition Z Position
	 EndSite
	 {
	 OFFSET 0 -1 0
	 }
}
ROOT td
{
	 OFFSET 0 0 0
	 CHANNELS 3 XPosition YPosition Z Position
	 EndSite
	 {
	 OFFSET 0 -1 0
	 }
}
ROOT v
{
	 OFFSET 0 0 0
	 CHANNELS 3 XPosition YPosition Z Position
	 EndSite
	 {
	 OFFSET 0 -1 0
	 }
}
ROOT bn
{
	 OFFSET 0 0 0
	 CHANNELS 3 XPosition YPosition Z Position
	 EndSite
	 {
	 OFFSET 0 -1 0
	 }
}
MOTION
Frames: 18
Frame Time: 0.002
0.0011243070363998412	-0.0016087299585342406	0		0.39696029663085936	-2.3396572265625	0		-1.073347412109375	-0.05852652740478516	0		-0.8361417236328125	-2.331150146484375	0		1.467379150390625	-0.42422296142578125	0		3.0404638671875	0.1210901870727539	0		4.49543896484375	0.1508229217529297	0		5.5855859375	0.006357271194458008	0		-0.0752580337524414	5.93640478515625	0		
-0.0014648400545120238	-0.00460529899597168	0		0.37056951904296875	-2.33712548828125	0		-1.1098408203125	-0.0568337516784668	0		-0.872530517578125	-2.328448974609375	0		1.464783935546875	-0.4281656494140625	0		3.008941162109375	0.12182640075683594	0		4.495908203125	0.15092570495605467	0		5.59184423828125	-0.003626511096954346	0		-0.07500072479248047	5.93634033203125	0		
-0.001028228998184204	-0.004679065227508545	0		0.3980378112792969	-2.339764404296875	0		-1.1053389892578125	-0.05403226089477539	0		-0.9058985595703125	-2.32282568359375	0		1.43322119140625	-0.4285028991699219	0		3.0413662109375	0.12117127990722656	0		4.500466796875	0.1569205322265625	0		5.59223779296875	-0.005506224155426025	0		-0.07381282043457031	5.9342431640625	0		
0.009567264556884766	0.005021650791168213	0		0.34871994018554686	-2.328767578125	0		-1.094977294921875	-0.05536350631713867	0		-0.901357666015625	-2.3190234375	0		1.436703125	-0.42460626220703124	0		3.04174609375	0.12118319702148438	0		4.500845703125	0.15697801208496093	0		5.5878369140625	0.004690004825592041	0		-0.1928010711669922	5.9267060546875	0		
0.009882813453674316	0.0049326171875	0		0.402978515625	-2.335000244140625	0		-1.1005518798828124	-0.050354923248291016	0		-0.9030224609375	-2.321093505859375	0		1.4370301513671875	-0.4246572570800781	0		3.04616455078125	0.12608836364746093	0		4.49702978515625	0.15109548950195312	0		5.5871953125	0.006770535945892334	0		-0.07441387939453124	5.93608740234375	0		
-0.073994140625	6.342290043830871E-4	0		0.3722033386230469	-2.337422119140625	0		-1.10846630859375	-0.057298892974853514	0		-0.8319065551757813	-2.329719482421875	0		1.4692852783203125	-0.4244028015136719	0		3.046393798828125	0.1260603256225586	0		4.4972587890625	0.1510983428955078	0		5.59321240234375	-0.0033291850090026854	0		-0.07430817413330078	5.9359931640625	0		
3.9740998297929764E-5	-0.005038837909698487	0		0.3993265380859375	-2.34008642578125	0		-1.1083294677734374	-0.05741043090820312	0		-0.9046114501953125	-2.32327099609375	0		1.4294583740234375	-0.42262179565429686	0		3.021576416015625	0.12854542541503905	0		4.497392578125	0.15107298278808592	0		5.58756298828125	0.006787994861602783	0		-0.07426338958740235	5.9358974609375	0		
-0.0778862075805664	-0.0024703269004821777	0		0.3910857849121094	-2.354003173828125	0		-1.10423095703125	-0.05460054397583008	0		-0.8686278076171875	-2.32714013671875	0		1.4343680419921876	-0.42880844116210937	0		3.026459716796875	0.12137328338623046	0		4.50225439453125	0.14291429138183595	0		5.60333837890625	-0.005594534873962402	0		-0.20576353454589844	5.91460107421875	0		
0.010223692893981933	0.004559891223907471	0		0.4143011474609375	-2.341587158203125	0		-1.0902532958984374	-0.05299359130859375	0		-0.8984857177734376	-2.31759619140625	0		1.440454833984375	-0.4220262451171875	0		3.06060302734375	0.1305615692138672	0		4.51046728515625	0.15565956115722657	0		5.6074248046875	0.00123989999294281	0		-0.058190357208251955	5.94336767578125	0		
0.010076664924621581	0.004473380088806152	0		0.4053170166015625	-2.3334853515625	0		-1.1003555908203124	-0.0508627815246582	0		-0.8278078002929687	-2.326191162109375	0		1.4781907958984375	-0.4279277648925781	0		3.037397705078125	0.1279535140991211	0		4.50921484375	0.1505768585205078	0		5.59255859375	0.014447075843811035	0		-0.19270875549316407	5.9261435546875	0		
0.005796533107757568	0.0014799779653549194	0		0.3989289855957031	-2.34043896484375	0		-1.1046575927734374	-0.05484501266479492	0		-0.9029667358398438	-2.321663330078125	0		1.4290660400390625	-0.422977294921875	0		3.009316162109375	0.134440185546875	0		4.497001953125	0.15070909118652343	0		5.587171875	0.006421119213104248	0		-0.07463831329345703	5.9355458984375	0		
0.002438987970352173	-0.0025260090827941895	0		0.3986223754882813	-2.340515625	0		-1.108994384765625	-0.05781387710571289	0		-0.8324386596679687	-2.330235107421875	0		1.465671875	-0.428857421875	0		3.025763916015625	0.12096604156494141	0		4.49258251953125	0.143660400390625	0		5.5926845703125	-0.003856049060821533	0		-0.07482563781738281	5.93547607421875	0		
-9.403079748153687E-4	-0.0055226149559021	0		0.3801412658691406	-2.3461982421875	0		-1.1052481689453124	-0.054941841125488285	0		-0.9036297607421875	-2.3217666015625	0		1.4284637451171875	-0.42315524291992185	0		3.029577392578125	0.12676464080810546	0		4.49641796875	0.15043296813964843	0		5.58754052734375	0.004089197158813476	0		-0.07503704833984375	5.935416015625	0		
0.008924265861511231	0.0042108712196350095	0		0.41078448486328123	-2.344919189453125	0		-1.101511474609375	-0.05105721664428711	0		-0.8660304565429687	-2.32261181640625	0		1.4311934814453124	-0.41929849243164063	0		3.04038037109375	0.1334185028076172	0		4.500201171875	0.15620822143554688	0		5.591978515625	-0.006174477100372314	0		-0.06103650283813476	5.9460654296875	0		
0.008557585716247559	0.004172935009002686	0		0.4015653076171875	-2.335774658203125	0		-1.1018792724609374	-0.0510728530883789	0		-0.902392822265625	-2.3198623046875	0		1.430818359375	-0.419364990234375	0		3.04484375	0.12521450805664064	0		4.49571044921875	0.15016708374023438	0		5.59165478515625	-0.0043249959945678715	0		-0.07455911254882812	5.93331005859375	0		
0.008180632591247558	0.004149063110351563	0		0.3970361328125	-2.340719482421875	0		-1.106342041015625	-0.0549882698059082	0		-0.868930419921875	-2.325595458984375	0		1.4273480224609374	-0.4233516540527344	0		3.04446923828125	0.12513091278076172	0		4.4953359375	0.15005494689941407	0		5.5854931640625	0.005667553901672363	0		-0.0757763671875	5.93530859375	0		
-0.002410900115966797	-0.005643373012542725	0		0.3696628112792969	-2.3381572265625	0		-1.110785888671875	-0.05789052963256836	0		-0.8734373779296875	-2.329501708984375	0		1.45797509765625	-0.4230516967773438	0		3.003144287109375	0.1279447250366211	0		4.49495947265625	0.14996353149414063	0		5.59089794921875	-0.004570189952850342	0		-0.07604705047607421	5.93530126953125	0		
0.0033623321056365967	0.0012322909832000733	0		0.40502664184570314	-2.348927490234375	0		-1.1012076416015626	-0.0600806999206543	0		-0.9056929931640625	-2.321796630859375	0		1.411474609375	-0.42808087158203123	0		3.00761962890625	0.12079647064208984	0		4.49871435546875	0.15580961608886718	0		5.5904794921875	-0.006654157161712647	0		-0.07536971282958985	5.93328759765625	0		
